<svg fill="#000000" height="40px" width="40px" version="1.1" id="Layer_1" xmlns="http://www.w3.org/2000/svg" xmlns:xlink="http://www.w3.org/1999/xlink" viewBox="-46.2 -46.2 422.40 422.40" xml:space="preserve" stroke="#000000" stroke-width="0.00330002" transform="rotate(0)matrix(-1, 0, 0, 1, 0, 0)"><g id="SVGRepo_bgCarrier" stroke-width="0" transform="translate(0,0), scale(1)"></g><g id="SVGRepo_tracerCarrier" stroke-linecap="round" stroke-linejoin="round" stroke="#fed766" stroke-width="9.90006"> <path id="XMLID_24_" d="M229.966,0.847c-6.011-2.109-12.698-0.19-16.678,4.784L93.288,155.635 c-4.382,5.478-4.382,13.263,0.001,18.741l120,149.996c2.902,3.628,7.245,5.63,11.716,5.63c1.658,0,3.336-0.276,4.962-0.847 c6.012-2.108,10.035-7.784,10.035-14.154v-300C240.001,8.63,235.978,2.955,229.966,0.847z M210.001,272.24l-85.79-107.235 l85.79-107.241V272.24z"></path> </g><g id="SVGRepo_iconCarrier"> <path id="XMLID_24_" d="M229.966,0.847c-6.011-2.109-12.698-0.19-16.678,4.784L93.288,155.635 c-4.382,5.478-4.382,13.263,0.001,18.741l120,149.996c2.902,3.628,7.245,5.63,11.716,5.63c1.658,0,3.336-0.276,4.962-0.847 c6.012-2.108,10.035-7.784,10.035-14.154v-300C240.001,8.63,235.978,2.955,229.966,0.847z M210.001,272.24l-85.79-107.235 l85.79-107.241V272.24z"></path> </g></svg>